<svg width="11" height="10" viewBox="0 0 11 10" fill="none" xmlns="http://www.w3.org/2000/svg">
<path d="M8.7125 1.21248C8.88858 1.04484 9.12291 0.952167 9.36602 0.954006C9.60914 0.955846 9.84203 1.05206 10.0156 1.22234C10.1891 1.39263 10.2897 1.62366 10.2961 1.8667C10.3025 2.10974 10.2143 2.34577 10.05 2.52498L5.0625 8.76248C4.97674 8.85486 4.87323 8.92899 4.75816 8.98044C4.6431 9.0319 4.51884 9.05962 4.39281 9.06195C4.26679 9.06429 4.14159 9.04118 4.02469 8.99402C3.9078 8.94686 3.80162 8.87662 3.7125 8.78748L0.404999 5.47998C0.31289 5.39416 0.239012 5.29066 0.187772 5.17566C0.136533 5.06066 0.10898 4.93652 0.106759 4.81064C0.104538 4.68476 0.127694 4.55972 0.174845 4.44299C0.221997 4.32625 0.292177 4.22021 0.381201 4.13119C0.470224 4.04216 0.576267 3.97198 0.693002 3.92483C0.809737 3.87768 0.934774 3.85452 1.06065 3.85674C1.18653 3.85896 1.31067 3.88652 1.42567 3.93776C1.54067 3.989 1.64417 4.06287 1.73 4.15498L4.3475 6.77123L8.68875 1.23998C8.69657 1.23036 8.70491 1.22118 8.71375 1.21248H8.7125Z" fill="white"/>
</svg>
